<?xml version="1.0" encoding="utf-8"?>

<!-- License Agreement at http://iconmonstr.com/license/ -->

<!DOCTYPE svg PUBLIC "-//W3C//DTD SVG 1.1//EN" "http://www.w3.org/Graphics/SVG/1.1/DTD/svg11.dtd">
<svg version="1.1" xmlns="http://www.w3.org/2000/svg" xmlns:xlink="http://www.w3.org/1999/xlink" x="0px" y="0px"
	 width="512px" height="512px" viewBox="0 0 512 512" enable-background="new 0 0 512 512" xml:space="preserve">
<path fill="#333" id="checkbox-11-icon" d="M457.861,145.415L251.546,351.744L137.86,238.028l48.407-48.415l65.276,65.295l157.89-157.89
	L457.861,145.415z M384.02,261.689c-1.402,36.596-16.309,70.8-42.35,96.841C314.283,385.917,277.869,401,239.139,401
	s-75.144-15.083-102.53-42.47s-42.47-63.8-42.47-102.53s15.083-75.144,42.47-102.53s63.8-42.47,102.53-42.47
	c31.297,0,61.076,9.853,85.805,28.082l28.529-28.528C322.002,85.78,282.297,71,239.139,71c-102.173,0-185,82.828-185,185
	s82.827,185,185,185c102.172,0,185-82.828,185-185c0-10.814-0.938-21.409-2.719-31.714L384.02,261.689z"/>
</svg>
